<?xml version="1.0" standalone="no"?>
<!DOCTYPE svg PUBLIC "-//W3C//DTD SVG 1.1//EN" "http://www.w3.org/Graphics/SVG/1.1/DTD/svg11.dtd" >
<svg xmlns="http://www.w3.org/2000/svg" xmlns:xlink="http://www.w3.org/1999/xlink" version="1.1">
<metadata>
Created by FontForge 20170731 at Wed Aug  9 19:08:00 2017
 By Aleksey,,,
Typeface (c) Darrell Flood. 2014. All Rights Reserved
</metadata>
<defs>
<font id="Funhouse" horiz-adv-x="1337" >
  <font-face 
    font-family="Funhouse"
    font-weight="400"
    font-stretch="normal"
    units-per-em="2048"
    panose-1="2 0 5 0 0 0 0 0 0 0"
    ascent="1638"
    descent="-410"
    x-height="1400"
    cap-height="1392"
    bbox="25 -300 2399 1685"
    underline-thickness="150"
    underline-position="-442"
    unicode-range="U+001D-2212"
  />
<missing-glyph horiz-adv-x="1500" 
 />
    <glyph glyph-name=".notdef" horiz-adv-x="1500" 
 />
    <glyph glyph-name=".null" horiz-adv-x="0" 
 />
    <glyph glyph-name=".null" horiz-adv-x="0" 
 />
    <glyph glyph-name="nonmarkingreturn" horiz-adv-x="508" 
 />
    <glyph glyph-name="space" unicode=" " horiz-adv-x="508" 
 />
    <glyph glyph-name="space" unicode="&#xa0;" horiz-adv-x="508" 
 />
    <glyph glyph-name="exclam" unicode="!" horiz-adv-x="729" 
d="M115 488l-90 889l679 81l-247 -993zM295 0q-83 0 -141.5 58.5t-58.5 141.5t58.5 141.5t141.5 58.5t141.5 -58.5t58.5 -141.5t-58.5 -141.5t-141.5 -58.5z" />
    <glyph glyph-name="quotedbl" unicode="&#x22;" horiz-adv-x="1159" 
d="M527 1508l-3 -624l-412 -84l-87 589zM1134 1418l-122 -618l-366 87l-17 621z" />
    <glyph glyph-name="numbersign" unicode="#" horiz-adv-x="1450" 
d="M125 600v200h-100v400h100v200h400v-200h400v200h400v-200h100v-400h-100v-200h100v-400h-100v-200h-400v200h-400v-200h-400v200h-100v400h100zM525 800v-200h400v200h-400z" />
    <glyph glyph-name="dollar" unicode="$" 
d="M341 1329l-51 150l478 127l23 -156q96 14 204 23l84 -452q-439 10 -471 -104t336 -131t360 -448q-4 -193 -199 -306l29 -133l-369 -82l-33 97q-172 -29 -397 -36l-177 473q492 -53 541 49.5t-312.5 153t-319.5 448.5q22 208 274 327z" />
    <glyph glyph-name="percent" unicode="%" horiz-adv-x="1350" 
d="M1238 1315l-762 -1315l-451 301l853 1099zM225 900q-83 0 -141.5 58.5t-58.5 141.5t58.5 141.5t141.5 58.5t141.5 -58.5t58.5 -141.5t-58.5 -141.5t-141.5 -58.5zM1125 100q-83 0 -141.5 58.5t-58.5 141.5t58.5 141.5t141.5 58.5t141.5 -58.5t58.5 -141.5t-58.5 -141.5
t-141.5 -58.5z" />
    <glyph glyph-name="ampersand" unicode="&#x26;" horiz-adv-x="1128" 
d="M731 965l372 49l-78 -514h-300v-242l-345 -52l-9 294h-303l-43 339l317 61l-17 300l429 72z" />
    <glyph glyph-name="quotesingle" unicode="'" horiz-adv-x="600" 
d="M575 1406l-139 -629l-342 23l-69 545z" />
    <glyph glyph-name="parenleft" unicode="(" horiz-adv-x="1094" 
d="M837 1678l80 -382q-353 12 -334.5 -537.5t486.5 -517.5l-73 -496q-876 -84 -923.5 887t764.5 1046z" />
    <glyph glyph-name="parenright" unicode=")" horiz-adv-x="1094" 
d="M98 -255l-73 496q468 -32 486.5 517.5t-334.5 537.5l80 382q812 -75 764.5 -1046t-923.5 -887z" />
    <glyph glyph-name="asterisk" unicode="*" horiz-adv-x="1050" 
d="M725 1100h300v-400h-300v-300h-400v300h-300v400h300v300h400v-300z" />
    <glyph glyph-name="plus" unicode="+" horiz-adv-x="1050" 
d="M725 900h300v-400h-300v-300h-400v300h-300v400h300v300h400v-300z" />
    <glyph glyph-name="comma" unicode="," horiz-adv-x="560" 
d="M530 334l5 -599l-510 -35l183 665z" />
    <glyph glyph-name="hyphen" unicode="-" horiz-adv-x="1085" 
d="M1060 967l-78 -505l-911 93l-46 345z" />
    <glyph glyph-name="hyphen" unicode="&#xad;" horiz-adv-x="1085" 
d="M1060 967l-78 -505l-911 93l-46 345z" />
    <glyph glyph-name="period" unicode="." horiz-adv-x="450" 
d="M225 0q-83 0 -141.5 58.5t-58.5 141.5t58.5 141.5t141.5 58.5t141.5 -58.5t58.5 -141.5t-58.5 -141.5t-141.5 -58.5z" />
    <glyph glyph-name="slash" unicode="/" horiz-adv-x="1280" 
d="M1255 1447l-821 -1647l-409 313l900 1487z" />
    <glyph glyph-name="zero" unicode="0" horiz-adv-x="1679" 
d="M840 0q-338 0 -576.5 205t-238.5 495t238.5 495t576.5 205q337 0 575.5 -205t238.5 -495t-238.5 -495t-575.5 -205zM1030.5 525q102.5 88 102.5 212t-102.5 212t-246.5 88q-145 0 -247.5 -88t-102.5 -212t102.5 -212t247.5 -88q144 0 246.5 88z" />
    <glyph glyph-name="one" unicode="1" horiz-adv-x="948" 
d="M923 14l-684 29l115 945l-236 -95l-93 394l719 221z" />
    <glyph glyph-name="two" unicode="2" 
d="M652 413l527 39l119 -574l-1257 130q-16 862 352 879t336 131t-471 104l84 452q886 -73 928 -471t-319.5 -448.5t-298.5 -241.5z" />
    <glyph glyph-name="three" unicode="3" horiz-adv-x="1176" 
d="M1091.5 334q-59.5 -334 -982.5 -418l-84 499q607 -15 607 79.5t-239 53.5l-66 349q305 3 302 121t-540 -12l58 421q859 57 931.5 -275.5t-246.5 -451.5q319 -32 259.5 -366z" />
    <glyph glyph-name="four" unicode="4" horiz-adv-x="1412" 
d="M535 1511l-510 -994l571 -75l-81 -480l591 73l-17 339l217 -23l81 438l-310 8v740zM480 838l115 273l119 -12l-49 -278z" />
    <glyph glyph-name="five" unicode="5" 
d="M1270 349q-42 -398 -928 -471l-84 452q439 -10 471 104t-336 131t-352 879l1257 130l-119 -574l-527 39q-63 -191 298.5 -241.5t319.5 -448.5z" />
    <glyph glyph-name="six" unicode="6" horiz-adv-x="1605" 
d="M335 1374l574 -101l-182 -361q795 165 824 -373.5t-748.5 -530t-467.5 1365.5zM1043 520q0 120 -176.5 120t-176.5 -120t176.5 -120t176.5 120z" />
    <glyph glyph-name="seven" unicode="7" horiz-adv-x="1339" 
d="M852 69l-664 279l451 654l-480 -63l-134 461l1289 104z" />
    <glyph glyph-name="eight" unicode="8" horiz-adv-x="1181" 
d="M529 1158q-55 0 -93.5 -31t-38.5 -75t38.5 -75t93.5 -31q54 0 92.5 31t38.5 75t-38.5 75t-92.5 31zM549 644q-83 0 -142 -34t-59 -83t59 -83.5t142 -34.5q84 0 143 34.5t59 83.5t-59 83t-143 34zM916 807q39 -21 75 -47q165 -125 165 -302q0 -176 -165.5 -301
t-399.5 -125q-235 0 -400.5 125t-165.5 301q0 177 166 302q26 19 53 36q-106 104 -106 247q0 157 128 267.5t309 110.5q180 0 308 -110.5t128 -267.5q0 -135 -95 -236z" />
    <glyph glyph-name="nine" unicode="9" horiz-adv-x="1605" 
d="M1270 8l-574 101l182 361q-795 -165 -824 373.5t748.5 530t467.5 -1365.5zM562 862q0 -120 176.5 -120t176.5 120t-176.5 120t-176.5 -120z" />
    <glyph glyph-name="colon" unicode=":" horiz-adv-x="450" 
d="M225 200q-83 0 -141.5 58.5t-58.5 141.5t58.5 141.5t141.5 58.5t141.5 -58.5t58.5 -141.5t-58.5 -141.5t-141.5 -58.5zM222 783q-72 0 -122.5 50.5t-50.5 122.5q0 71 50.5 121.5t122.5 50.5q71 0 121.5 -50.5t50.5 -121.5q0 -72 -50.5 -122.5t-121.5 -50.5z" />
    <glyph glyph-name="semicolon" unicode=";" horiz-adv-x="567" 
d="M530 592l5 -599l-510 -35l183 665zM370 783q-72 0 -122.5 50.5t-50.5 122.5q0 71 50.5 121.5t122.5 50.5q71 0 121.5 -50.5t50.5 -121.5q0 -72 -50.5 -122.5t-121.5 -50.5z" />
    <glyph glyph-name="semicolon" unicode="&#x37e;" horiz-adv-x="567" 
d="M530 592l5 -599l-510 -35l183 665zM370 783q-72 0 -122.5 50.5t-50.5 122.5q0 71 50.5 121.5t122.5 50.5q71 0 121.5 -50.5t50.5 -121.5q0 -72 -50.5 -122.5t-121.5 -50.5z" />
    <glyph glyph-name="less" unicode="&#x3c;" horiz-adv-x="1153" 
d="M858 1432l270 -432l-468 -329l387 -164l-148 -411l-874 491z" />
    <glyph glyph-name="equal" unicode="=" horiz-adv-x="1085" 
d="M1060 1278l-166 -495l-820 41l-49 376zM973 571l-29 -420l-919 49l93 432z" />
    <glyph glyph-name="greater" unicode="&#x3e;" horiz-adv-x="1153" 
d="M1128 587l-874 -491l-148 411l387 164l-468 329l270 432z" />
    <glyph glyph-name="question" unicode="?" horiz-adv-x="1307" 
d="M535 0q-83 0 -141.5 58.5t-58.5 141.5t58.5 141.5t141.5 58.5t141.5 -58.5t58.5 -141.5t-58.5 -141.5t-141.5 -58.5zM277 868q458 32 467 123t-629 -52l-90 386q1149 315 1210 -214q47 -407 -510 -549l29 -72l-435 -75z" />
    <glyph glyph-name="at" unicode="@" horiz-adv-x="1783" 
d="M910 425q-92 -67 -235 -67q-132 0 -195.5 66t-35.5 179q44 180 219.5 318.5t381.5 138.5q105 0 288 -77q-131 -235 -153.5 -291.5t-32.5 -95.5q-11 -44 11 -44q86 0 165.5 92.5t110.5 221.5q56 167 -39.5 250t-267.5 83q-273 0 -493 -175t-285 -441q-43 -174 47 -279
t276 -105q98 0 202 29t195 100l108 -164q-126 -80 -283.5 -122t-293.5 -42q-288 0 -431.5 156.5t-81.5 406.5q89 357 402.5 596t708.5 239q284 0 422 -135t80 -368q-52 -206 -221.5 -366.5t-381.5 -160.5q-142 0 -187 57zM995 886q-82 0 -166.5 -86t-109.5 -187
q-17 -65 36 -65q55 0 105 40t83.5 109t83.5 180q-8 9 -32 9z" />
    <glyph glyph-name="A" unicode="A" horiz-adv-x="1511" 
d="M489 200l-70 -200l-394 238l494 1162l376 26l591 -1203l-467 -223l-103 281zM831 638l-112 362l-132 -400z" />
    <glyph glyph-name="B" unicode="B" horiz-adv-x="1512" 
d="M412 909q310 58 304 176t-317 37zM460 315q453 18 454.5 158t-469.5 134zM25 0l37 1295q715 291 983 28t-68 -530q510 -157 329.5 -512.5t-1281.5 -280.5z" />
    <glyph glyph-name="C" unicode="C" horiz-adv-x="1610" 
d="M1406 205q-237 -205 -572 -205t-572 205t-237 495t237 495t572 205t572 -205q119 -103 179 -228l-480 -121q-24 64 -84 116q-102 88 -245 88t-245 -88t-102 -212t102 -212t245 -88t245 88q55 48 81 108l482 -213q-59 -125 -178 -228z" />
    <glyph glyph-name="D" unicode="D" horiz-adv-x="1414" 
d="M89 0l-64 1400q1364 0 1364 -700t-1300 -700zM445 1029l67 -484q433 -2 433 241t-500 243z" />
    <glyph glyph-name="E" unicode="E" horiz-adv-x="1241" 
d="M1085 1580l26 -530l-622 -67l8 -121l408 38l36 -362l-426 -31l7 -98l604 46l90 -455l-1191 -41l121 1443z" />
    <glyph glyph-name="F" unicode="F" horiz-adv-x="1045" 
d="M1020 1554l-85 -580l-487 26l20 -100l387 -44l-53 -416l-267 60l90 -434l-490 -66l-110 1313z" />
    <glyph glyph-name="G" unicode="G" horiz-adv-x="1652" 
d="M1627 14l-569 -144l10 158q-111 -28 -234 -28q-335 0 -572 205t-237 495t237 495t572 205t572 -205q119 -103 179 -228l-480 -121q-24 64 -84 116q-102 88 -245 88t-245 -88t-102 -212t102 -212t245 -88t245 88q55 48 85 106l454 20z" />
    <glyph glyph-name="H" unicode="H" horiz-adv-x="1581" 
d="M546 422l36 -338l-383 -67l-174 1108l426 182l48 -480l384 44l6 437l667 -67l-255 -1229l-429 127l5 319z" />
    <glyph glyph-name="I" unicode="I" horiz-adv-x="616" 
d="M489 1392l102 -1349l-566 -107l26 1421z" />
    <glyph glyph-name="J" unicode="J" horiz-adv-x="1479" 
d="M784 1333l438 67q232 -1356 -600 -1400q-555 0 -597 599l447 151q-13 -350 150 -350q328 85 162 933z" />
    <glyph glyph-name="K" unicode="K" horiz-adv-x="1350" 
d="M390 885l322 605l613 -90l-574 -700l533 -332l-459 -368l-400 500l70 -410l-470 -90v1400l319 -35z" />
    <glyph glyph-name="L" unicode="L" horiz-adv-x="952" 
d="M94 1420l493 -26l-162 -994l502 78l-111 -533l-791 55z" />
    <glyph glyph-name="M" unicode="M" horiz-adv-x="1734" 
d="M1625 1400l84 -1319l-510 -43l-27 675l-103 -464l-458 -64l-186 479l67 -568l-467 -96l64 1400l459 61l254 -800l308 776z" />
    <glyph glyph-name="N" unicode="N" horiz-adv-x="1671" 
d="M526 700l99 -573l-499 -127l-101 1313l501 87l494 -654l6 654l620 64l-220 -1464l-397 -58z" />
    <glyph glyph-name="O" unicode="O" horiz-adv-x="1679" 
d="M840 0q-338 0 -576.5 205t-238.5 495t238.5 495t576.5 205q337 0 575.5 -205t238.5 -495t-238.5 -495t-575.5 -205zM1030.5 525q102.5 88 102.5 212t-102.5 212t-246.5 88q-145 0 -247.5 -88t-102.5 -212t102.5 -212t247.5 -88q144 0 246.5 88z" />
    <glyph glyph-name="P" unicode="P" horiz-adv-x="1449" 
d="M565 403l81 -299l-522 -104l-99 1339q1332 215 1399 -439q0 -500 -859 -497zM428 995l56 -195q540 0 508 142t-564 53z" />
    <glyph glyph-name="Q" unicode="Q" horiz-adv-x="1798" 
d="M1025 758q0 124 -88 212t-212 88t-212 -88t-88 -212t88 -212t212 -88t212 88t88 212zM1593 446l180 -54l-378 -467l-112 189q-196 -114 -447 -114q-336 0 -573.5 205t-237.5 495t237.5 495t573.5 205q335 0 572.5 -205t237.5 -495q0 -137 -53 -254z" />
    <glyph glyph-name="R" unicode="R" horiz-adv-x="1541" 
d="M515 1070l14 -270q500 0 500 100t-514 170zM582 81l-557 -78l116 1493q1288 -96 1331.5 -515.5t-443.5 -580.5l400 -217l-410 -363l-469 580z" />
    <glyph glyph-name="S" unicode="S" 
d="M67 1002q42 398 928 471l84 -452q-439 10 -471 -104t336 -131t360 -448t-969 -460l-177 473q492 -53 541 49.5t-312.5 153t-319.5 448.5z" />
    <glyph glyph-name="T" unicode="T" horiz-adv-x="1298" 
d="M834 974l49 -852l-542 -140l93 1018l-409 35l32 370l1173 70l43 -547z" />
    <glyph glyph-name="U" unicode="U" horiz-adv-x="1954" 
d="M373 1330l533 -104q-266 -817 76 -826q406 3 235 846l488 154q224 -1388 -723 -1400q-957 9 -609 1330z" />
    <glyph glyph-name="V" unicode="V" horiz-adv-x="1528" 
d="M548 0l-523 1040l423 360l300 -800l196 707l559 -157l-546 -1101z" />
    <glyph glyph-name="W" unicode="W" horiz-adv-x="2424" 
d="M1215 700l-200 -700l-395 -52l-595 1177l490 275l300 -800l235 632l400 -55l165 -577l240 829l544 -298l-584 -1131l-447 96z" />
    <glyph glyph-name="X" unicode="X" horiz-adv-x="1430" 
d="M458 700l-418 459l395 241l244 -364l249 364l477 -284l-493 -419l470 -520l-445 -177l-261 362l-237 -362l-414 154z" />
    <glyph glyph-name="Y" unicode="Y" horiz-adv-x="1479" 
d="M496 600l-471 475l398 325l273 -400l227 498l531 -182l-558 -716l43 -562l-487 66z" />
    <glyph glyph-name="Z" unicode="Z" horiz-adv-x="1389" 
d="M1364 1275l-584 -855l489 44l-9 -533l-1235 208l719 861h-673l133 475z" />
    <glyph glyph-name="bracketleft" unicode="[" horiz-adv-x="851" 
d="M733 1678l-66 -499l-242 29l49 -941h300l52 -467h-700l-101 1808z" />
    <glyph glyph-name="backslash" unicode="\" horiz-adv-x="1237" 
d="M318 1600l894 -1504l-403 -296l-784 1687z" />
    <glyph glyph-name="bracketright" unicode="]" horiz-adv-x="851" 
d="M826 1608l-101 -1808h-700l52 467h300l49 941l-242 -29l-66 499z" />
    <glyph glyph-name="asciicircum" unicode="^" horiz-adv-x="1059" 
d="M1034 1123l-412 -223l-100 250l-100 -250l-397 95l461 690z" />
    <glyph glyph-name="underscore" unicode="_" horiz-adv-x="1306" 
d="M1281 458l-30 -501l-1159 20l-67 423z" />
    <glyph glyph-name="a" unicode="a" horiz-adv-x="1511" 
d="M489 200l-70 -200l-394 238l494 1162l376 26l591 -1203l-467 -223l-103 281zM831 638l-112 362l-132 -400z" />
    <glyph glyph-name="b" unicode="b" horiz-adv-x="1512" 
d="M412 909q310 58 304 176t-317 37zM460 315q453 18 454.5 158t-469.5 134zM25 0l37 1295q715 291 983 28t-68 -530q510 -157 329.5 -512.5t-1281.5 -280.5z" />
    <glyph glyph-name="c" unicode="c" horiz-adv-x="1610" 
d="M1406 205q-237 -205 -572 -205t-572 205t-237 495t237 495t572 205t572 -205q119 -103 179 -228l-480 -121q-24 64 -84 116q-102 88 -245 88t-245 -88t-102 -212t102 -212t245 -88t245 88q55 48 81 108l482 -213q-59 -125 -178 -228z" />
    <glyph glyph-name="d" unicode="d" horiz-adv-x="1414" 
d="M89 0l-64 1400q1364 0 1364 -700t-1300 -700zM445 1029l67 -484q433 -2 433 241t-500 243z" />
    <glyph glyph-name="e" unicode="e" horiz-adv-x="1241" 
d="M1085 1580l26 -530l-622 -67l8 -121l408 38l36 -362l-426 -31l7 -98l604 46l90 -455l-1191 -41l121 1443z" />
    <glyph glyph-name="f" unicode="f" horiz-adv-x="1045" 
d="M1020 1554l-85 -580l-487 26l20 -100l387 -44l-53 -416l-267 60l90 -434l-490 -66l-110 1313z" />
    <glyph glyph-name="g" unicode="g" horiz-adv-x="1652" 
d="M1627 14l-569 -144l10 158q-111 -28 -234 -28q-335 0 -572 205t-237 495t237 495t572 205t572 -205q119 -103 179 -228l-480 -121q-24 64 -84 116q-102 88 -245 88t-245 -88t-102 -212t102 -212t245 -88t245 88q55 48 85 106l454 20z" />
    <glyph glyph-name="h" unicode="h" horiz-adv-x="1581" 
d="M546 422l36 -338l-383 -67l-174 1108l426 182l48 -480l384 44l6 437l667 -67l-255 -1229l-429 127l5 319z" />
    <glyph glyph-name="i" unicode="i" horiz-adv-x="616" 
d="M489 1392l102 -1349l-566 -107l26 1421z" />
    <glyph glyph-name="j" unicode="j" horiz-adv-x="1479" 
d="M784 1333l438 67q232 -1356 -600 -1400q-555 0 -597 599l447 151q-13 -350 150 -350q328 85 162 933z" />
    <glyph glyph-name="k" unicode="k" horiz-adv-x="1350" 
d="M390 885l322 605l613 -90l-574 -700l533 -332l-459 -368l-400 500l70 -410l-470 -90v1400l319 -35z" />
    <glyph glyph-name="l" unicode="l" horiz-adv-x="952" 
d="M94 1420l493 -26l-162 -994l502 78l-111 -533l-791 55z" />
    <glyph glyph-name="m" unicode="m" horiz-adv-x="1734" 
d="M1625 1400l84 -1319l-510 -43l-27 675l-103 -464l-458 -64l-186 479l67 -568l-467 -96l64 1400l459 61l254 -800l308 776z" />
    <glyph glyph-name="n" unicode="n" horiz-adv-x="1671" 
d="M526 700l99 -573l-499 -127l-101 1313l501 87l494 -654l6 654l620 64l-220 -1464l-397 -58z" />
    <glyph glyph-name="o" unicode="o" horiz-adv-x="1679" 
d="M840 0q-338 0 -576.5 205t-238.5 495t238.5 495t576.5 205q337 0 575.5 -205t238.5 -495t-238.5 -495t-575.5 -205zM1030.5 525q102.5 88 102.5 212t-102.5 212t-246.5 88q-145 0 -247.5 -88t-102.5 -212t102.5 -212t247.5 -88q144 0 246.5 88z" />
    <glyph glyph-name="p" unicode="p" horiz-adv-x="1449" 
d="M565 403l81 -299l-522 -104l-99 1339q1332 215 1399 -439q0 -500 -859 -497zM428 995l56 -195q540 0 508 142t-564 53z" />
    <glyph glyph-name="q" unicode="q" horiz-adv-x="1798" 
d="M1025 758q0 124 -88 212t-212 88t-212 -88t-88 -212t88 -212t212 -88t212 88t88 212zM1593 446l180 -54l-378 -467l-112 189q-196 -114 -447 -114q-336 0 -573.5 205t-237.5 495t237.5 495t573.5 205q335 0 572.5 -205t237.5 -495q0 -137 -53 -254z" />
    <glyph glyph-name="r" unicode="r" horiz-adv-x="1541" 
d="M515 1070l14 -270q500 0 500 100t-514 170zM582 81l-557 -78l116 1493q1288 -96 1331.5 -515.5t-443.5 -580.5l400 -217l-410 -363l-469 580z" />
    <glyph glyph-name="s" unicode="s" 
d="M67 1002q42 398 928 471l84 -452q-439 10 -471 -104t336 -131t360 -448t-969 -460l-177 473q492 -53 541 49.5t-312.5 153t-319.5 448.5z" />
    <glyph glyph-name="t" unicode="t" horiz-adv-x="1298" 
d="M834 974l49 -852l-542 -140l93 1018l-409 35l32 370l1173 70l43 -547z" />
    <glyph glyph-name="u" unicode="u" horiz-adv-x="1954" 
d="M373 1330l533 -104q-266 -817 76 -826q406 3 235 846l488 154q224 -1388 -723 -1400q-957 9 -609 1330z" />
    <glyph glyph-name="v" unicode="v" horiz-adv-x="1528" 
d="M548 0l-523 1040l423 360l300 -800l196 707l559 -157l-546 -1101z" />
    <glyph glyph-name="w" unicode="w" horiz-adv-x="2424" 
d="M1215 700l-200 -700l-395 -52l-595 1177l490 275l300 -800l235 632l400 -55l165 -577l240 829l544 -298l-584 -1131l-447 96z" />
    <glyph glyph-name="x" unicode="x" horiz-adv-x="1430" 
d="M458 700l-418 459l395 241l244 -364l249 364l477 -284l-493 -419l470 -520l-445 -177l-261 362l-237 -362l-414 154z" />
    <glyph glyph-name="y" unicode="y" horiz-adv-x="1479" 
d="M496 600l-471 475l398 325l273 -400l227 498l531 -182l-558 -716l43 -562l-487 66z" />
    <glyph glyph-name="z" unicode="z" horiz-adv-x="1389" 
d="M1364 1275l-584 -855l489 44l-9 -533l-1235 208l719 861h-673l133 475z" />
    <glyph glyph-name="braceleft" unicode="{" horiz-adv-x="1072" 
d="M257 917q90 683 674 688l52 -393q-302 0 -296.5 -501.5t360.5 -510.5l-133 -406q-567 6 -657 723l-232 29l67 446z" />
    <glyph glyph-name="bar" unicode="|" horiz-adv-x="563" 
d="M538 1602l-78 -1782l-345 -37l-90 1759z" />
    <glyph glyph-name="braceright" unicode="}" horiz-adv-x="1072" 
d="M980 992l67 -446l-232 -29q-90 -717 -657 -723l-133 406q355 9 360.5 510.5t-296.5 501.5l52 393q584 -5 674 -688z" />
    <glyph glyph-name="asciitilde" unicode="~" horiz-adv-x="1285" 
d="M161 433l-136 394q407 172 613 81t521 143l101 -489q-399 -229 -605 -110.5t-494 -18.5z" />
    <glyph glyph-name="sterling" unicode="&#xa3;" horiz-adv-x="1435" 
d="M224 900q79 500 557 531.5t611 -374.5l-370 -233q-97 176 -212 176t-167 -132l267 -20l-52 -377l-248 29v-102l736 81l64 -479l-1200 -102l6 645l-191 29l75 354z" />
    <glyph glyph-name="yen" unicode="&#xa5;" horiz-adv-x="1502" 
d="M905 200l-3 -142l-397 -58v200l-268 -38l-87 511l355 -73l-480 579l407 221l273 -400l273 400l499 -110l-572 -690l360 29l-118 -481z" />
    <glyph glyph-name="quoteleft" unicode="&#x2018;" horiz-adv-x="600" 
d="M575 1406l-139 -629l-342 23l-69 545z" />
    <glyph glyph-name="quoteright" unicode="&#x2019;" horiz-adv-x="600" 
d="M575 1406l-139 -629l-342 23l-69 545z" />
    <glyph glyph-name="quotedblleft" unicode="&#x201c;" horiz-adv-x="1159" 
d="M527 1508l-3 -624l-412 -84l-87 589zM1134 1418l-122 -618l-366 87l-17 621z" />
    <glyph glyph-name="quotedblright" unicode="&#x201d;" horiz-adv-x="1159" 
d="M527 1508l-3 -624l-412 -84l-87 589zM1134 1418l-122 -618l-366 87l-17 621z" />
    <glyph glyph-name="bullet" unicode="&#x2022;" horiz-adv-x="450" 
d="M225 500q-83 0 -141.5 58.5t-58.5 141.5t58.5 141.5t141.5 58.5t141.5 -58.5t58.5 -141.5t-58.5 -141.5t-141.5 -58.5z" />
    <glyph glyph-name="ellipsis" unicode="&#x2026;" horiz-adv-x="1650" 
d="M1425 0q-83 0 -141.5 58.5t-58.5 141.5t58.5 141.5t141.5 58.5t141.5 -58.5t58.5 -141.5t-58.5 -141.5t-141.5 -58.5zM825 0q-83 0 -141.5 58.5t-58.5 141.5t58.5 141.5t141.5 58.5t141.5 -58.5t58.5 -141.5t-58.5 -141.5t-141.5 -58.5zM225 0q-83 0 -141.5 58.5
t-58.5 141.5t58.5 141.5t141.5 58.5t141.5 -58.5t58.5 -141.5t-58.5 -141.5t-141.5 -58.5z" />
    <glyph glyph-name="Euro" unicode="&#x20ac;" horiz-adv-x="1500" 
d="M549 544q5 -6 11 -12q88 -88 212 -88t212 88q48 48 70 108l420 -207q-51 -125 -154 -228q-205 -205 -495 -205t-495 205q-130 130 -178 295l-77 -11l-50 411l127 11q48 154 178 284q205 205 495 205t495 -205q103 -103 155 -228l-418 -127q-21 64 -73 116q-88 88 -212 88
t-212 -88q-6 -6 -11 -12l250 44l47 -421z" />
    <glyph glyph-name="trademark" unicode="&#x2122;" horiz-adv-x="1188" 
d="M328 1258l40 -312l-215 -20l32 332h-160v143l456 41l9 -184h-162zM1099 1401l64 -432l-207 -69v239l-54 -199l-161 -14l-71 212v-238l-207 78l64 423l227 41l59 -327l95 249z" />
    <glyph glyph-name="minus" unicode="&#x2212;" horiz-adv-x="1050" 
d="M985 923l40 -423l-959 -87l-41 487z" />
    </font>
</defs>
</svg>
